# xmcd CD database file
#
# Track frame offsets:
#	150
#	15675
#	33231
#	55197
#	75073
#	87476
#	98994
#	126193
#	147899
#	158974
#	175884
#	191447
#	205378
#	224148
#	232709
#	247557
#	267243
#	286215
#	298239
#	316933
#
# Disc length: 4436 seconds
#
# Revision: 1
# Processed by: cddbd v1.5.1PL0 Copyright (c) Steve Scherf et al.
# Submitted via: Feurio! 1.68 - http://www.feurio.com
#
DISCID=15115214
DTITLE=Jerry Jeff Walker - Best of the Vanguard Years
DYEAR=1900
DGENRE=Country
TTITLE0=Driftin' Way of Life
TTITLE1=Mr. Bojangles
TTITLE2=Louise [with Nicolette Larson]
TTITLE3=Morning Song to Sally
TTITLE4=Come Outside, Believe in It
TTITLE5=People Play Games
TTITLE6=Hansel and Gretel
TTITLE7=Fading Lady
TTITLE8=Mixtures
TTITLE9=Shell Game
TTITLE10=North Cumberland Blues
TTITLE11=Let It Ride
TTITLE12=Dust on My Boots
TTITLE13=Old Road
TTITLE14=Gertrude
TTITLE15=Ramblin', Scramblin'
TTITLE16=No Roots In Ramblin'
TTITLE17=Trying to Live Right
TTITLE18=Lost Sea Shanty
TTITLE19=Oops I Can Dance
EXTD=ID3G: 2
EXTT0=
EXTT1=
EXTT2=
EXTT3=
EXTT4=
EXTT5=
EXTT6=
EXTT7=
EXTT8=
EXTT9=
EXTT10=
EXTT11=
EXTT12=
EXTT13=
EXTT14=
EXTT15=
EXTT16=
EXTT17=
EXTT18=
EXTT19=
PLAYORDER=
